<?xml version="1.0" encoding="utf-8"?>
<!-- Generator: Adobe Illustrator 19.0.0, SVG Export Plug-In . SVG Version: 6.00 Build 0)  -->
<svg version="1.1" id="Layer_3" xmlns="http://www.w3.org/2000/svg" xmlns:xlink="http://www.w3.org/1999/xlink" x="0px" y="0px"
	 width="144px" height="64px" viewBox="22 69 144 64" style="enable-background:new 22 69 144 64;" xml:space="preserve">
<style type="text/css">
	.st0{fill:#FFFFFF;}
</style>
<path class="st0" d="M160.6,86.1v-2.3l-4.1-0.6c-0.2-0.8-0.5-1.5-0.9-2.2l2.5-3.3l-1.6-1.6l-3.3,2.5c-0.7-0.5-1.5-0.8-2.3-1
	l-0.6-4.1H148l-0.6,4c-0.8,0.2-1.6,0.5-2.3,0.9l-3.2-2.5l-1.6,1.6l2.4,3.2c-0.5,0.8-0.8,1.6-1,2.4l-4,0.6V86l4,0.5
	c0.2,0.8,0.5,1.6,1,2.4l-2.4,3.2l1.6,1.6l3.2-2.5c0.7,0.4,1.5,0.7,2.3,0.9l0.6,4h2.3l0.6-4.1c0.8-0.2,1.6-0.5,2.3-1l3.3,2.5l1.6-1.6
	l-2.5-3.3c0.4-0.7,0.7-1.4,0.9-2.2L160.6,86.1z M153.7,85c0,2.5-2,4.6-4.6,4.6c-2.5,0-4.6-2-4.6-4.6c0-2.5,2-4.6,4.6-4.6
	C151.6,80.4,153.7,82.5,153.7,85z"/>
<path class="st0" d="M160.6,120.4v-2.3l-4.1-0.6c-0.2-0.8-0.5-1.5-0.9-2.2l2.5-3.3l-1.6-1.6l-3.3,2.5c-0.7-0.5-1.5-0.8-2.3-1
	l-0.6-4.1H148l-0.6,4c-0.8,0.2-1.6,0.5-2.3,0.9l-3.2-2.5l-1.6,1.6l2.4,3.2c-0.5,0.8-0.8,1.6-1,2.4l-4,0.6v2.3l4,0.5
	c0.2,0.8,0.5,1.6,1,2.4l-2.4,3.2l1.6,1.6l3.2-2.5c0.7,0.4,1.5,0.7,2.3,0.9l0.6,4h2.3l0.6-4.1c0.8-0.2,1.6-0.5,2.3-1l3.3,2.5l1.6-1.6
	l-2.5-3.3c0.4-0.7,0.7-1.4,0.9-2.2L160.6,120.4z M153.7,119.2c0,2.5-2,4.6-4.6,4.6c-2.5,0-4.6-2-4.6-4.6c0-2.5,2-4.6,4.6-4.6
	C151.6,114.6,153.7,116.7,153.7,119.2z"/>
<path class="st0" d="M91.3,73.9v20.7h29.5V73.9H91.3z M95.1,85h9.6c0.6,0,1,0.4,1,1s-0.4,1-1,1h-9.6c-0.6,0-1-0.4-1-1
	S94.5,85,95.1,85z M109.4,89.9H95.1c-0.6,0-1-0.4-1-1s0.4-1,1-1h14.3c0.6,0,1,0.4,1,1S109.9,89.9,109.4,89.9z M109.8,87h-2.7
	c-0.6,0-1-0.4-1-1s0.4-1,1-1h2.7c0.6,0,1,0.4,1,1S110.4,87,109.8,87z M113.8,89.9h-2c-0.6,0-1-0.4-1-1s0.4-1,1-1h2c0.6,0,1,0.4,1,1
	S114.3,89.9,113.8,89.9z M116.9,89.9h-0.7c-0.6,0-1-0.4-1-1s0.4-1,1-1h0.7c0.6,0,1,0.4,1,1S117.5,89.9,116.9,89.9z M117.1,87h-4.8
	c-0.6,0-1-0.4-1-1s0.4-1,1-1h4.8c0.6,0,1,0.4,1,1S117.6,87,117.1,87z"/>
<g>
	<g>
		<path class="st0" d="M120.8,129.5H91.3v-20.7h29.5V129.5z M93.3,127.5h25.5v-16.7H93.3V127.5z"/>
	</g>
	<g>
		<path class="st0" d="M104.6,122H95c-0.6,0-1-0.4-1-1s0.4-1,1-1h9.6c0.6,0,1,0.4,1,1S105.2,122,104.6,122z"/>
	</g>
	<g>
		<path class="st0" d="M109.4,124.8H95.1c-0.6,0-1-0.4-1-1s0.4-1,1-1h14.3c0.6,0,1,0.4,1,1S109.9,124.8,109.4,124.8z"/>
	</g>
	<g>
		<path class="st0" d="M113.8,124.8h-2c-0.6,0-1-0.4-1-1s0.4-1,1-1h2c0.6,0,1,0.4,1,1S114.3,124.8,113.8,124.8z"/>
	</g>
	<g>
		<path class="st0" d="M116.9,124.8h-0.7c-0.6,0-1-0.4-1-1s0.4-1,1-1h0.7c0.6,0,1,0.4,1,1S117.5,124.8,116.9,124.8z"/>
	</g>
	<g>
		<path class="st0" d="M109.8,122h-2.7c-0.6,0-1-0.4-1-1s0.4-1,1-1h2.7c0.6,0,1,0.4,1,1S110.4,122,109.8,122z"/>
	</g>
	<g>
		<path class="st0" d="M117.1,122h-4.8c-0.6,0-1-0.4-1-1s0.4-1,1-1h4.8c0.6,0,1,0.4,1,1S117.6,122,117.1,122z"/>
	</g>
</g>
<path class="st0" d="M27.4,75.8c0-0.8,0.6-1.1,1.2-0.7l14.9,9.5c0.7,0.4,0.7,1.1,0,1.6l-14.9,9.5c-0.7,0.4-1.2,0.1-1.2-0.7V75.8z"/>
<g>
	<g>
		<path class="st0" d="M61.6,95.5c0,0.5,0.4,1,0.9,1h4c0.5,0,0.9-0.5,0.9-1v-19c0-0.5-0.4-1-0.9-1h-4c-0.5,0-0.9,0.5-0.9,1V95.5z"/>
	</g>
	<g>
		<path class="st0" d="M72.4,95.5c0,0.5,0.4,1,0.9,1h4c0.5,0,0.9-0.5,0.9-1v-19c0-0.5-0.4-1-0.9-1h-4c-0.5,0-0.9,0.5-0.9,1V95.5z"/>
	</g>
</g>
</svg>
